HIERARCHY
ROOT Hips
{
  OFFSET 0 0 0
  CHANNELS 6 Xposition Yposition Zposition Zrotation Yrotation Xrotation
  JOINT LeftThigh
  {
    OFFSET 8.409438 0 -5.917753
    CHANNELS 3 Zrotation Yrotation Xrotation
    JOINT LeftLeg
    {
      OFFSET 0 0 -42.358652
      CHANNELS 3 Zrotation Yrotation Xrotation
      JOINT LeftFoot
      {
        OFFSET 0 0 -39.357303
        CHANNELS 3 Zrotation Yrotation Xrotation
      }
    }
  }
  JOINT RightThigh
  {
    OFFSET -8.409438 0 -5.917753
    CHANNELS 3 Zrotation Yrotation Xrotation
    JOINT RightLeg
    {
      OFFSET 0 0 -42.358652
      CHANNELS 3 Zrotation Yrotation Xrotation
      JOINT RightFoot
      {
        OFFSET 0 0 -39.357303
        CHANNELS 3 Zrotation Yrotation Xrotation
      }
    }
  }
  JOINT SpineLow
  {
    OFFSET 0 0 4.719101
    CHANNELS 3 Zrotation Yrotation Xrotation
    JOINT SpineMid
    {
      OFFSET 0 0 12.899191
      CHANNELS 3 Zrotation Yrotation Xrotation
      JOINT Chest
      {
        OFFSET 0 0 12.899191
        CHANNELS 3 Zrotation Yrotation Xrotation
        JOINT LeftShoulder
        {
          OFFSET 7.550562 1.41573 9.438202
          CHANNELS 3 Zrotation Yrotation Xrotation
          JOINT LeftArm
          {
            OFFSET 9.155056 0 4.247191
            CHANNELS 3 Zrotation Yrotation Xrotation
            JOINT LeftForearm
            {
              OFFSET 0 0 25.771955
              CHANNELS 3 Zrotation Yrotation Xrotation
              JOINT LeftHand
              {
                OFFSET 0 0 25.197169
                CHANNELS 3 Zrotation Yrotation Xrotation
              }
            }
          }
        }
        JOINT RightShoulder
        {
          OFFSET -7.550562 1.41573 9.438202
          CHANNELS 3 Zrotation Yrotation Xrotation
          JOINT RightArm
          {
            OFFSET -9.155056 0 4.247191
            CHANNELS 3 Zrotation Yrotation Xrotation
            JOINT RightForearm
            {
              OFFSET 0 0 -25.771955
              CHANNELS 3 Zrotation Yrotation Xrotation
              JOINT RightHand
              {
                OFFSET 0 0 -25.197169
                CHANNELS 3 Zrotation Yrotation Xrotation
              }
            }
          }
        }
        JOINT Neck
        {
          OFFSET 0 0 15.101124
          CHANNELS 3 Zrotation Yrotation Xrotation
          JOINT Head
          {
            OFFSET 0 0 11.325843
            CHANNELS 3 Zrotation Yrotation Xrotation
            End Site
            {
              OFFSET 0 0 14.157303
            }
          }
        }
      }
    }
  }
}
MOTION
Frames: 8
Frame Time: 0.0
0.0  93.25843  0.0  0.440168  -45.077596  -96.117857  39.908084  -23.684426  -36.800118  -3.709615  7.295234  37.962959  9.63059  -0.042658  6.037267  -14.651294  22.287773  -11.70346  0.210042  9.722753  28.222502  -1.011323  0.482841  -0.131736  4.349523  0.58514  1.353055  11.919004  1.350133  3.790209  11.919005  1.350133  3.790209  -22.298975  12.268302  3.972772  -134.460368  67.423377  -73.316433  -48.610393  8.437983  72.035984  85.229459  -10.269171  -18.808538  -6.018799  -14.82299  19.403154  114.52663  31.319831  42.397001  -10.903147  -20.126297  -117.69727  63.619232  -8.465253  -21.562511  10.556623  0.139484  2.902438  7.917014  0.154816  2.175188  
0.0  93.25843  0.0  0.394878  -44.893463  -95.952686  40.21535  -23.845378  -37.184201  -3.592355  7.253315  37.860072  9.562969  0.112483  6.010336  -15.732254  21.311631  -12.5373  1.536736  9.754771  29.557408  -1.642806  0.687457  -0.618057  4.06155  0.498894  1.256702  11.125373  1.148223  3.507898  11.125373  1.148223  3.507898  -21.338168  13.002341  5.093177  -134.141263  66.5939  -73.295565  -48.831261  8.471783  71.89716  85.841534  -10.710389  -18.994084  -5.636063  -13.982494  20.058604  113.545769  31.653394  41.980339  -11.041338  -19.799652  -117.905202  62.617949  -8.702282  -21.532524  11.286067  0.278931  3.508705  8.463265  0.274128  2.627435  
0.0  93.25843  0.0  0.394259  -45.006896  -95.798641  41.187779  -23.931488  -37.660029  -3.540737  7.334619  37.759167  9.345028  0.195542  5.837977  -17.45445  20.915672  -13.881677  2.154202  10.763939  30.59265  -0.41611  0.420958  -0.680323  3.935957  0.462292  1.19722  10.779277  1.064965  3.3379  10.779276  1.064965  3.3379  -21.132902  13.469309  5.492781  -133.746233  66.44067  -73.121479  -48.87137  7.848415  71.828759  86.221735  -10.666563  -19.152154  -5.52088  -13.621354  20.244195  112.181509  31.971004  41.325314  -10.963558  -19.401109  -118.311689  61.851899  -8.879027  -21.39783  11.617378  0.348007  3.904641  8.711208  0.335406  2.923108  
0.0  93.25843  0.0  0.372347  -45.120749  -95.600745  42.320459  -23.99803  -38.177044  -3.980912  7.679828  37.157165  9.302271  0.386312  5.900942  -19.285869  20.342727  -14.624212  2.425629  12.056543  30.654427  1.565402  0.121508  -0.584762  3.917749  0.431368  1.119403  10.726865  0.99427  3.12053  10.726866  0.99427  3.12053  -21.573746  13.963183  5.318053  -133.838608  66.835834  -73.429523  -48.664875  6.763839  71.83091  86.227404  -10.325055  -19.286651  -5.959488  -13.514961  20.50955  110.855277  32.316202  40.685487  -10.781938  -19.021321  -118.708251  61.43931  -8.993618  -21.25511  11.60421  0.393432  4.326894  8.700858  0.377433  3.239072  
0.0  93.25843  0.0  0.21689  -45.206514  -95.318272  43.542095  -24.08177  -38.660335  -4.110512  8.01055  36.781527  9.068993  0.4032  5.781589  -20.062745  20.040532  -14.893855  2.786057  12.52604  30.61987  2.733943  -0.16283  -0.523173  3.855001  0.355265  1.013074  10.55051  0.80687  2.817716  10.55051  0.80687  2.817717  -21.662843  14.78429  5.020267  -134.22836  67.254043  -74.017243  -48.389726  5.916391  71.792639  86.113389  -10.164585  -19.375102  -6.023199  -13.292162  20.980824  109.607325  32.805625  40.146294  -10.571591  -18.63801  -119.053587  61.26338  -9.149037  -21.15802  11.788376  0.570752  4.833627  8.837356  0.521589  3.615777  
0.0  93.25843  0.0  -0.047451  -45.343495  -94.956471  44.720998  -24.155708  -39.098496  -4.163179  8.420062  36.311659  8.914452  0.301041  5.695389  -18.702202  19.729796  -14.254995  2.588773  12.493386  30.829296  2.732915  -0.246494  -0.625283  3.752682  0.237663  0.899347  10.264981  0.508429  2.488338  10.264982  0.508429  2.488338  -21.22702  15.738303  5.077716  -134.388654  67.258856  -74.147735  -48.364801  5.647387  71.599894  86.109666  -10.390501  -19.346701  -5.729162  -12.901586  21.468989  108.583881  33.361671  39.69332  -10.423948  -18.174699  -119.314254  61.071843  -9.367474  -21.042005  12.182067  0.886122  5.301278  9.129505  0.770719  3.960081  
0.0  93.25843  0.0  -0.378342  -45.364975  -94.488671  45.689299  -24.134368  -39.493768  -4.225384  8.621516  35.828169  8.759508  0.214777  5.594209  -16.197499  19.07268  -13.253837  1.714806  12.321155  31.331242  1.803693  0.066937  -0.999578  3.656563  0.109625  0.779699  9.997215  0.181141  2.142186  9.997215  0.181141  2.142187  -20.753626  16.566798  5.563967  -134.253304  66.931035  -73.792295  -48.600178  5.687092  71.390347  86.164284  -10.780904  -19.204091  -5.493606  -12.476532  21.926764  107.798905  33.952535  39.245932  -10.422722  -17.620784  -119.447241  60.810097  -9.605873  -20.930992  12.513151  1.214092  5.641516  9.374262  1.026717  4.208209  
0.0  93.25843  0.0  -0.619617  -45.212093  -94.054903  45.96969  -23.900962  -39.897637  -4.034837  8.47605  35.616676  8.404953  0.180771  5.383039  -14.148813  18.368795  -12.569388  1.051816  12.147139  31.75005  1.086189  0.61849  -1.352648  3.590143  0.001872  0.672589  9.812482  -0.094577  1.834079  9.812482  -0.094577  1.834079  -20.560546  17.253483  6.065522  -134.146509  66.646293  -73.438802  -48.868905  5.660932  71.294492  86.209599  -11.074636  -19.012429  -5.454863  -12.150031  22.220317  107.213641  34.412376  38.804875  -10.584629  -17.03985  -119.452758  60.56251  -9.787873  -20.807101  12.657964  1.492898  5.827476  9.479734  1.24116  4.341641  
